<svg width="149" height="60" viewBox="0 0 149 60" fill="none" xmlns="http://www.w3.org/2000/svg">
<path d="M118.109 35.6855H113.346C113.077 35.6855 112.852 35.9085 112.852 36.1739V36.1845C112.852 36.45 113.077 36.6729 113.346 36.6729H114.701C114.97 36.6729 115.195 36.8959 115.195 37.1613V43.0643C115.195 43.3297 115.421 43.5527 115.69 43.5527H115.744C116.013 43.5527 116.238 43.3297 116.238 43.0643V37.1613C116.238 36.8959 116.464 36.6729 116.733 36.6729H118.098C118.367 36.6729 118.593 36.45 118.593 36.1845V36.1739C118.604 35.9085 118.389 35.6855 118.109 35.6855Z" fill="white" stroke="white"/>
<path d="M126.646 42.5653H123.937C123.668 42.5653 123.442 42.3423 123.442 42.0769V40.5587C123.442 40.2933 123.668 40.0703 123.937 40.0703H126.302C126.571 40.0703 126.797 39.8474 126.797 39.5819C126.797 39.3165 126.571 39.0936 126.302 39.0936H123.937C123.668 39.0936 123.442 38.8706 123.442 38.6052V37.1613C123.442 36.8959 123.668 36.6729 123.937 36.6729H126.593C126.861 36.6729 127.087 36.45 127.087 36.1845V36.1739C127.087 35.9085 126.861 35.6855 126.593 35.6855H122.883C122.614 35.6855 122.389 35.9085 122.389 36.1739V43.0643C122.389 43.3297 122.614 43.5527 122.883 43.5527H126.646C126.915 43.5527 127.141 43.3297 127.141 43.0643V43.0537C127.141 42.7883 126.926 42.5653 126.646 42.5653Z" fill="white" stroke="white"/>
<path d="M137.817 41.5261L137.763 41.4943C137.548 41.3775 137.279 41.4306 137.129 41.6217C136.925 41.8871 136.656 42.1207 136.333 42.3012C135.882 42.556 135.387 42.694 134.839 42.694C133.925 42.694 133.172 42.3967 132.592 41.8128C132.011 41.2289 131.721 40.4963 131.721 39.6363C131.721 38.7551 132.011 38.0332 132.592 37.4492C133.172 36.8653 133.925 36.568 134.839 36.568C135.387 36.568 135.882 36.6955 136.333 36.9609C136.656 37.1414 136.914 37.3749 137.118 37.6404C137.269 37.8315 137.537 37.8845 137.752 37.7678L137.806 37.7359C138.064 37.5873 138.14 37.2369 137.946 37.0033C137.645 36.6318 137.279 36.3239 136.839 36.0691C136.226 35.7293 135.559 35.5488 134.828 35.5488C133.624 35.5488 132.624 35.9417 131.839 36.7273C131.054 37.513 130.656 38.4791 130.656 39.6257C130.656 40.7723 131.054 41.7385 131.839 42.5241C132.624 43.3098 133.624 43.7026 134.828 43.7026C135.559 43.7026 136.226 43.5327 136.839 43.1824C137.279 42.9276 137.645 42.6197 137.946 42.2481C138.15 42.0145 138.075 41.6642 137.817 41.5261Z" fill="white" stroke="white"/>
<path d="M147.686 35.6855H147.632C147.363 35.6855 147.137 35.9085 147.137 36.1739V38.5309C147.137 38.7963 146.911 39.0193 146.643 39.0193H143.761C143.492 39.0193 143.267 38.7963 143.267 38.5309V36.1739C143.267 35.9085 143.041 35.6855 142.772 35.6855H142.707C142.439 35.6855 142.213 35.9085 142.213 36.1739V43.0643C142.213 43.3297 142.439 43.5527 142.707 43.5527H142.772C143.041 43.5527 143.267 43.3297 143.267 43.0643V40.5056C143.267 40.2402 143.492 40.0172 143.761 40.0172H146.643C146.911 40.0172 147.137 40.2402 147.137 40.5056V43.0643C147.137 43.3297 147.363 43.5527 147.632 43.5527H147.686C147.954 43.5527 148.18 43.3297 148.18 43.0643V36.1739C148.18 35.9085 147.954 35.6855 147.686 35.6855Z" fill="white" stroke="white"/>
<path d="M7.97795 18.1465C4.12878 18.1465 1 21.236 1 25.0369V50.3794C1 54.1802 4.12878 57.2698 7.97795 57.2698C11.8271 57.2698 14.9559 54.1802 14.9559 50.3794V25.0369C14.9559 21.236 11.8271 18.1465 7.97795 18.1465ZM13.3431 50.3794C13.3431 53.299 10.9347 55.6772 7.97795 55.6772C5.02119 55.6772 2.61278 53.299 2.61278 50.3794V25.0369C2.61278 22.1172 5.02119 19.739 7.97795 19.739C10.9347 19.739 13.3431 22.1172 13.3431 25.0369V50.3794Z" fill="white" stroke="white"/>
<path d="M7.97795 1C4.12878 1 1 4.08952 1 7.89037C1 11.6912 4.12878 14.7807 7.97795 14.7807C11.8271 14.7807 14.9559 11.6912 14.9559 7.89037C14.9559 4.08952 11.8271 1 7.97795 1ZM7.97795 13.1988C5.02119 13.1988 2.61278 10.8206 2.61278 7.90098C2.61278 4.98134 5.02119 2.60316 7.97795 2.60316C10.9347 2.60316 13.3431 4.98134 13.3431 7.90098C13.3431 10.8206 10.9347 13.1988 7.97795 13.1988Z" fill="url(#paint0_linear_656_1676)" stroke="url(#paint1_linear_656_1676)"/>
<path d="M89.415 19.3465H88.5011C86.4905 19.3465 84.5982 19.8242 82.9101 20.6629C80.9533 19.6013 78.7061 18.9961 76.3085 18.9961C69.18 18.9961 63.3848 24.7186 63.3848 31.7576V48.5111V48.872V51.4626C63.3848 55.0935 66.3738 58.0557 70.0617 58.0557H71.0723C74.7495 58.0557 77.7492 55.1042 77.7492 51.4626V37.5969C79.104 37.3633 80.5232 37.2465 81.9855 37.2465C84.2434 37.2465 86.4152 37.5226 88.4151 38.0322V52.4075C88.4151 56.0384 91.4041 59.0006 95.092 59.0006C98.7799 59.0006 101.769 56.0491 101.769 52.4075V49.8276V49.3073V31.5453C101.769 24.8142 96.2317 19.3465 89.415 19.3465ZM65.0083 31.747C65.0083 25.5892 70.0832 20.578 76.3192 20.578C78.0933 20.578 79.7813 20.9602 81.2973 21.6397C78.1793 23.8586 76.1472 27.4684 76.1472 31.5453V36.291C73.47 36.8962 71.0186 37.926 68.965 39.3168C67.2769 40.4635 65.9545 41.78 65.019 43.2239V31.747H65.0083ZM76.1472 51.4519C76.1472 54.2123 73.8786 56.4525 71.0831 56.4525H70.0724C67.2769 56.4525 65.0083 54.2123 65.0083 51.4519V48.8614V48.5004C65.0083 43.6485 69.6531 39.5079 76.1472 37.926V51.4519ZM81.9962 35.6434C80.5555 35.6434 79.1362 35.7602 77.76 35.9831V31.5453C77.76 27.7232 79.8136 24.3682 82.8886 22.4997C86.2217 24.6337 88.4258 28.339 88.4258 32.5326V36.376C86.383 35.8982 84.2218 35.6434 81.9962 35.6434ZM100.156 52.3969C100.156 55.1572 97.8875 57.3974 95.092 57.3974C92.2965 57.3974 90.0278 55.1572 90.0278 52.3969V38.4887C96.0166 40.4635 100.145 44.5616 100.145 49.2967V49.8169V52.3969H100.156ZM100.156 43.8609C99.1562 42.2683 97.7154 40.8032 95.8661 39.5504C94.1566 38.3932 92.1782 37.4695 90.0386 36.8112V32.5326C90.0386 28.0948 87.8667 24.1559 84.5229 21.6822C85.7486 21.1938 87.0926 20.9284 88.5011 20.9284H89.415C95.3393 20.9284 100.156 25.6847 100.156 31.5347V43.8609Z" fill="white" stroke="white"/>
<path d="M50.7816 37.3832H40.5029C37.0838 37.3832 34.2991 34.6335 34.2991 31.2573V30.1107C34.2991 26.3948 36.2451 23.1248 39.1804 21.2243C41.7716 22.7956 43.7499 25.3118 44.5671 28.3589C45.1692 30.6203 47.2228 32.2022 49.5559 32.2022C49.5667 32.2022 49.5667 32.2022 49.5774 32.2022L54.491 32.181C55.6307 32.181 56.6737 31.6607 57.351 30.7583C58.0284 29.8559 58.2327 28.7199 57.8994 27.6476C56.1898 22.01 51.1687 17.9225 45.9541 17.9225H45.0401C42.9113 17.9225 40.9007 18.4533 39.1481 19.3982C37.2451 18.4321 35.0947 17.8906 32.8476 17.8906C25.7191 17.8906 19.9238 23.6131 19.9238 30.6521V31.6395C19.9238 35.7376 23.2999 39.082 27.4609 39.082H37.7504C41.0942 39.082 43.879 41.768 43.9542 45.0699C44.0187 47.8834 42.9543 50.5482 40.9652 52.5548C40.3416 53.1918 39.6427 53.7333 38.8901 54.1792C36.5032 52.6716 34.7291 50.3146 33.9872 47.4374C33.4066 45.176 31.3638 43.5729 29.0306 43.5517L23.6762 43.4986C23.6655 43.4986 23.6547 43.4986 23.644 43.4986C22.5903 43.4986 21.6226 43.9657 20.9883 44.7938C20.3431 45.622 20.1281 46.673 20.4077 47.6816C21.1388 50.2934 22.6763 52.6928 24.7514 54.434C26.9555 56.2813 29.5682 57.2581 32.2885 57.2581H33.4497C35.3635 57.2581 37.202 56.8228 38.8578 56.0159C40.7824 57.0457 43.0188 57.6084 45.3842 57.6084C52.5127 57.6084 58.3079 51.8859 58.3079 44.8469C58.3187 40.7276 54.9319 37.3832 50.7816 37.3832ZM45.0509 19.5044H45.9648C50.4806 19.5044 54.8566 23.1141 56.3726 28.0935C56.5554 28.688 56.4371 29.3038 56.0716 29.8028C55.6952 30.3018 55.1254 30.5884 54.5018 30.5884L49.5882 30.6097H49.5774C47.9754 30.6097 46.5669 29.5161 46.1476 27.9554C45.3089 24.8022 43.3736 22.1586 40.8147 20.375C42.0941 19.8123 43.5349 19.5044 45.0509 19.5044ZM27.4716 37.4576C24.2031 37.4576 21.5474 34.8352 21.5474 31.6077V30.6203C21.5474 24.4625 26.6222 19.4513 32.8583 19.4513C34.5141 19.4513 36.1054 19.7804 37.5676 20.3856C34.6109 22.6151 32.697 26.14 32.697 30.0894V31.2361C32.697 33.7735 33.9442 36.0243 35.8581 37.4363H27.4716V37.4576ZM33.4604 55.6337H32.2992C27.6652 55.6337 23.3214 52.0983 21.9667 47.2251C21.8269 46.7049 21.9344 46.1634 22.2677 45.7387C22.601 45.3141 23.1064 45.0699 23.6547 45.0699C23.6655 45.0699 23.6655 45.0699 23.6762 45.0699L29.0306 45.123C30.6327 45.1336 32.0304 46.2377 32.439 47.809C33.2024 50.7712 34.9227 53.2449 37.2451 54.9648C36.0408 55.4001 34.7721 55.6337 33.4604 55.6337ZM45.395 55.9947C43.6532 55.9947 41.9974 55.6443 40.5136 55.0073C41.0835 54.6039 41.6211 54.1473 42.1156 53.6483C44.4058 51.3338 45.6315 48.2656 45.567 45.0168C45.5132 42.5537 44.266 40.3666 42.3844 38.9864H50.7816C54.0502 38.9864 56.7059 41.6088 56.7059 44.8363C56.7059 50.9835 51.631 55.9947 45.395 55.9947Z" fill="white" stroke="white"/>
<defs>
<linearGradient id="paint0_linear_656_1676" x1="0.996506" y1="7.89435" x2="14.9558" y2="7.89435" gradientUnits="userSpaceOnUse">
<stop stop-color="#DFFB88"/>
<stop offset="0.606" stop-color="#B2B5F9"/>
</linearGradient>
<linearGradient id="paint1_linear_656_1676" x1="0.996506" y1="7.89435" x2="14.9558" y2="7.89435" gradientUnits="userSpaceOnUse">
<stop stop-color="#DFFB88"/>
<stop offset="0.606" stop-color="#B2B5F9"/>
</linearGradient>
</defs>
</svg>
