<svg width="98" height="41" viewBox="0 0 98 41" fill="none" xmlns="http://www.w3.org/2000/svg">
<path d="M77.1595 24.0566H74.0619C73.8871 24.0566 73.7402 24.2016 73.7402 24.3742V24.3812C73.7402 24.5538 73.8871 24.6988 74.0619 24.6988H74.9429C75.1177 24.6988 75.2646 24.8438 75.2646 25.0164V28.8553C75.2646 29.0279 75.4114 29.1729 75.5862 29.1729H75.6212C75.796 29.1729 75.9428 29.0279 75.9428 28.8553V25.0164C75.9428 24.8438 76.0896 24.6988 76.2645 24.6988H77.1525C77.3273 24.6988 77.4741 24.5538 77.4741 24.3812V24.3742C77.4811 24.2016 77.3413 24.0566 77.1595 24.0566Z" fill="#00373C" stroke="#00373C"/>
<path d="M82.7123 28.5308H80.9503C80.7754 28.5308 80.6286 28.3858 80.6286 28.2132V27.2258C80.6286 27.0532 80.7754 26.9082 80.9503 26.9082H82.4886C82.6634 26.9082 82.8102 26.7632 82.8102 26.5906C82.8102 26.418 82.6634 26.273 82.4886 26.273H80.9503C80.7754 26.273 80.6286 26.128 80.6286 25.9554V25.0164C80.6286 24.8438 80.7754 24.6988 80.9503 24.6988H82.6774C82.8522 24.6988 82.999 24.5538 82.999 24.3812V24.3742C82.999 24.2016 82.8522 24.0566 82.6774 24.0566H80.265C80.0902 24.0566 79.9434 24.2016 79.9434 24.3742V28.8553C79.9434 29.0279 80.0902 29.1729 80.265 29.1729H82.7123C82.8871 29.1729 83.034 29.0279 83.034 28.8553V28.8484C83.034 28.6758 82.8941 28.5308 82.7123 28.5308Z" fill="#00373C" stroke="#00373C"/>
<path d="M89.9772 27.856L89.9422 27.8353C89.8024 27.7593 89.6276 27.7939 89.5297 27.9181C89.3968 28.0908 89.222 28.2427 89.0123 28.36C88.7186 28.5257 88.3969 28.6155 88.0403 28.6155C87.446 28.6155 86.9565 28.4222 86.5789 28.0424C86.2013 27.6627 86.0126 27.1863 86.0126 26.627C86.0126 26.0539 86.2013 25.5844 86.5789 25.2047C86.9565 24.8249 87.446 24.6316 88.0403 24.6316C88.3969 24.6316 88.7186 24.7144 89.0123 24.8871C89.222 25.0044 89.3898 25.1563 89.5227 25.3289C89.6206 25.4532 89.7954 25.4877 89.9352 25.4118L89.9702 25.3911C90.138 25.2944 90.187 25.0666 90.0611 24.9147C89.8653 24.673 89.6276 24.4728 89.3409 24.3071C88.9423 24.0861 88.5088 23.9688 88.0333 23.9688C87.2502 23.9688 86.5999 24.2242 86.0895 24.7352C85.579 25.2461 85.3203 25.8744 85.3203 26.6201C85.3203 27.3658 85.579 27.9941 86.0895 28.505C86.5999 29.016 87.2502 29.2714 88.0333 29.2714C88.5088 29.2714 88.9423 29.161 89.3409 28.9331C89.6276 28.7674 89.8653 28.5672 90.0611 28.3255C90.194 28.1736 90.145 27.9458 89.9772 27.856Z" fill="#00373C" stroke="#00373C"/>
<path d="M96.395 24.0566H96.3601C96.1853 24.0566 96.0384 24.2016 96.0384 24.3742V25.9071C96.0384 26.0797 95.8916 26.2247 95.7168 26.2247H93.8428C93.668 26.2247 93.5212 26.0797 93.5212 25.9071V24.3742C93.5212 24.2016 93.3744 24.0566 93.1995 24.0566H93.1576C92.9828 24.0566 92.8359 24.2016 92.8359 24.3742V28.8553C92.8359 29.0279 92.9828 29.1729 93.1576 29.1729H93.1995C93.3744 29.1729 93.5212 29.0279 93.5212 28.8553V27.1913C93.5212 27.0187 93.668 26.8737 93.8428 26.8737H95.7168C95.8916 26.8737 96.0384 27.0187 96.0384 27.1913V28.8553C96.0384 29.0279 96.1853 29.1729 96.3601 29.1729H96.395C96.5698 29.1729 96.7167 29.0279 96.7167 28.8553V24.3742C96.7167 24.2016 96.5698 24.0566 96.395 24.0566Z" fill="#00373C" stroke="#00373C"/>
<path d="M5.538 12.6504C3.03476 12.6504 1 14.6596 1 17.1314V33.6126C1 36.0844 3.03476 38.0936 5.538 38.0936C8.04125 38.0936 10.076 36.0844 10.076 33.6126V17.1314C10.076 14.6596 8.04125 12.6504 5.538 12.6504ZM9.02716 33.6126C9.02716 35.5113 7.46089 37.0579 5.538 37.0579C3.61512 37.0579 2.04885 35.5113 2.04885 33.6126V17.1314C2.04885 15.2327 3.61512 13.6861 5.538 13.6861C7.46089 13.6861 9.02716 15.2327 9.02716 17.1314V33.6126Z" fill="#00373C" stroke="#00373C"/>
<path d="M5.538 1.5C3.03476 1.5 1 3.50922 1 5.98105C1 8.45287 3.03476 10.4621 5.538 10.4621C8.04125 10.4621 10.076 8.45287 10.076 5.98105C10.076 3.50922 8.04125 1.5 5.538 1.5ZM5.538 9.43332C3.61512 9.43332 2.04885 7.8867 2.04885 5.98795C2.04885 4.0892 3.61512 2.54259 5.538 2.54259C7.46089 2.54259 9.02716 4.0892 9.02716 5.98795C9.02716 7.8867 7.46089 9.43332 5.538 9.43332Z" fill="url(#paint0_linear_573_2119)" stroke="url(#paint1_linear_573_2119)"/>
<path d="M58.4987 13.431H57.9043C56.5968 13.431 55.3661 13.7417 54.2683 14.2871C52.9957 13.5967 51.5343 13.2031 49.9751 13.2031C45.3392 13.2031 41.5703 16.9247 41.5703 21.5024V32.3977V32.6325V34.3172C41.5703 36.6786 43.5142 38.6049 45.9125 38.6049H46.5698C48.9612 38.6049 50.912 36.6855 50.912 34.3172V25.2999C51.7931 25.148 52.716 25.072 53.667 25.072C55.1354 25.072 56.5478 25.2515 57.8484 25.583V34.9317C57.8484 37.2931 59.7923 39.2194 62.1906 39.2194C64.589 39.2194 66.5328 37.3 66.5328 34.9317V33.2539V32.9156V21.3643C66.5328 16.9868 62.9318 13.431 58.4987 13.431ZM42.6261 21.4955C42.6261 17.4908 45.9265 14.2319 49.982 14.2319C51.1358 14.2319 52.2336 14.4805 53.2195 14.9224C51.1917 16.3654 49.8702 18.7129 49.8702 21.3643V24.4506C48.1291 24.8442 46.5348 25.5139 45.1993 26.4184C44.1015 27.1641 43.2415 28.0203 42.6331 28.9593V21.4955H42.6261ZM49.8702 34.3103C49.8702 36.1055 48.3948 37.5623 46.5768 37.5623H45.9195C44.1015 37.5623 42.6261 36.1055 42.6261 34.3103V32.6256V32.3908C42.6261 29.2355 45.6468 26.5427 49.8702 25.5139V34.3103ZM53.674 24.0294C52.737 24.0294 51.814 24.1054 50.919 24.2504V21.3643C50.919 18.8787 52.2546 16.6968 54.2544 15.4816C56.422 16.8694 57.8554 19.2791 57.8554 22.0064V24.5059C56.5269 24.1951 55.1214 24.0294 53.674 24.0294ZM65.484 34.9248C65.484 36.72 64.0086 38.1768 62.1906 38.1768C60.3726 38.1768 58.8972 36.72 58.8972 34.9248V25.8799C62.7919 27.1641 65.477 29.8292 65.477 32.9087V33.247V34.9248H65.484ZM65.484 29.3736C64.8337 28.3379 63.8967 27.385 62.6941 26.5703C61.5823 25.8177 60.2957 25.217 58.9042 24.7889V22.0064C58.9042 19.1203 57.4918 16.5587 55.3172 14.95C56.1143 14.6324 56.9883 14.4598 57.9043 14.4598H58.4987C62.3514 14.4598 65.484 17.553 65.484 21.3574V29.3736Z" fill="#00373C" stroke="#00373C"/>
<path d="M33.3746 25.1611H26.6899C24.4664 25.1611 22.6554 23.3728 22.6554 21.1772V20.4315C22.6554 18.0149 23.921 15.8883 25.8299 14.6524C27.515 15.6743 28.8016 17.3106 29.333 19.2922C29.7246 20.7629 31.0601 21.7917 32.5774 21.7917C32.5844 21.7917 32.5844 21.7917 32.5914 21.7917L35.7869 21.7779C36.5281 21.7779 37.2063 21.4396 37.6469 20.8527C38.0874 20.2658 38.2202 19.527 38.0035 18.8296C36.8917 15.1633 33.6263 12.5051 30.235 12.5051H29.6407C28.2562 12.5051 26.9486 12.8503 25.8089 13.4648C24.5712 12.8365 23.1728 12.4844 21.7114 12.4844C17.0755 12.4844 13.3066 16.2059 13.3066 20.7836V21.4258C13.3066 24.0909 15.5022 26.2658 18.2082 26.2658H24.8999C27.0745 26.2658 28.8855 28.0127 28.9344 30.16C28.9764 31.9897 28.2842 33.7227 26.9906 35.0277C26.585 35.442 26.1305 35.7941 25.6411 36.0841C24.0888 35.1036 22.935 33.5708 22.4526 31.6997C22.075 30.229 20.7465 29.1865 19.2291 29.1726L15.747 29.1381C15.74 29.1381 15.733 29.1381 15.726 29.1381C15.0407 29.1381 14.4114 29.4419 13.9989 29.9805C13.5793 30.519 13.4395 31.2026 13.6213 31.8585C14.0968 33.557 15.0967 35.1175 16.4462 36.2498C17.8796 37.4512 19.5787 38.0864 21.3478 38.0864H22.103C23.3476 38.0864 24.5433 37.8033 25.6201 37.2786C26.8717 37.9483 28.3261 38.3143 29.8644 38.3143C34.5003 38.3143 38.2692 34.5927 38.2692 30.015C38.2762 27.336 36.0736 25.1611 33.3746 25.1611ZM29.6477 13.5339H30.242C33.1788 13.5339 36.0246 15.8814 37.0105 19.1196C37.1294 19.5063 37.0525 19.9068 36.8148 20.2313C36.57 20.5558 36.1994 20.7422 35.7939 20.7422L32.5984 20.756H32.5914C31.5496 20.756 30.6336 20.0448 30.3609 19.0299C29.8155 16.9792 28.5569 15.26 26.8927 14.1C27.7248 13.7341 28.6617 13.5339 29.6477 13.5339ZM18.2152 25.2094C16.0896 25.2094 14.3625 23.504 14.3625 21.405V20.7629C14.3625 16.7583 17.6628 13.4993 21.7184 13.4993C22.7952 13.4993 23.8301 13.7134 24.781 14.1069C22.8581 15.5569 21.6135 17.8492 21.6135 20.4177V21.1634C21.6135 22.8136 22.4246 24.2773 23.6692 25.1956H18.2152V25.2094ZM22.1099 37.03H21.3548C18.3411 37.03 15.5162 34.7308 14.6352 31.5616C14.5443 31.2233 14.6142 30.8712 14.831 30.595C15.0477 30.3188 15.3764 30.16 15.733 30.16C15.74 30.16 15.74 30.16 15.747 30.16L19.2291 30.1945C20.271 30.2014 21.18 30.9195 21.4457 31.9414C21.9421 33.8677 23.0609 35.4765 24.5712 36.595C23.7881 36.8781 22.963 37.03 22.1099 37.03ZM29.8714 37.2648C28.7387 37.2648 27.6618 37.0369 26.6969 36.6226C27.0675 36.3603 27.4171 36.0634 27.7388 35.7389C29.2281 34.2337 30.0252 32.2383 29.9833 30.1255C29.9483 28.5236 29.1372 27.1013 27.9136 26.2037H33.3746C35.5002 26.2037 37.2273 27.9091 37.2273 30.0081C37.2273 34.0058 33.9269 37.2648 29.8714 37.2648Z" fill="#00373C" stroke="#00373C"/>
<defs>
<linearGradient id="paint0_linear_573_2119" x1="0.997728" y1="5.98363" x2="10.076" y2="5.98363" gradientUnits="userSpaceOnUse">
<stop stop-color="#DFFB88"/>
<stop offset="0.606" stop-color="#B2B5F9"/>
</linearGradient>
<linearGradient id="paint1_linear_573_2119" x1="0.997728" y1="5.98363" x2="10.076" y2="5.98363" gradientUnits="userSpaceOnUse">
<stop stop-color="#DFFB88"/>
<stop offset="0.606" stop-color="#B2B5F9"/>
</linearGradient>
</defs>
</svg>
